<?xml version="1.0" encoding="UTF-8"?>
<svg id="Layer_1" xmlns="http://www.w3.org/2000/svg" version="1.1" viewBox="0 0 841.9 275.7">
  <!-- Generator: Adobe Illustrator 29.0.1, SVG Export Plug-In . SVG Version: 2.1.0 Build 192)  -->
  <defs>
    <style>
      .st0 {
        isolation: isolate;
      }

      .st1 {
        fill: #262424;
      }

      .st2 {
        fill: #77beb8;
      }

      .st3 {
        fill: #737373;
      }
    </style>
  </defs>
  <g class="st0">
    <g class="st0">
      <path class="st3" d="M270.2,195.5h-1.7v-16.8h1.7v16.8Z"/>
      <path class="st3" d="M286.9,192.9h0v-14.2h1.7v16.8h-2.1l-10-14.4h0v14.4h-1.7v-16.8h2.1l10,14.2Z"/>
      <path class="st3" d="M298.6,195.5h-1.7v-15.2h-5.6v-1.6h12.9v1.6h-5.6v15.2Z"/>
      <path class="st3" d="M308.5,193.9h9v1.6h-10.7v-16.8h10.4v1.6h-8.7v5.7h8.1v1.6h-8.1v6.4Z"/>
      <path class="st3" d="M322.6,195.5h-1.7v-16.8h5.2c1.7,0,3.1.4,4,1.1s1.5,1.9,1.5,3.4-.4,2.2-1.1,2.9c-.7.8-1.8,1.3-3.2,1.4l4.8,8h-2.1l-4.6-7.8h-2.8v7.8ZM322.6,186.1h3c.8,0,1.4,0,1.9-.2.5-.2,1-.4,1.3-.6.3-.3.5-.6.7-.9.1-.4.2-.7.2-1.1s0-.8-.2-1.1c-.1-.4-.4-.7-.7-.9-.3-.3-.7-.5-1.3-.6-.5-.1-1.2-.2-1.9-.2h-3v5.9Z"/>
      <path class="st3" d="M347,192.9h0v-14.2h1.7v16.8h-2.1l-10-14.4h0v14.4h-1.7v-16.8h2.1l10,14.2Z"/>
      <path class="st3" d="M353.1,195.5h-2l7.3-16.8h1.7l7.3,16.8h-2l-1.8-4.4h-8.6l-1.8,4.4ZM355.5,189.5h7.3l-3.6-8.8-3.6,8.8Z"/>
      <path class="st3" d="M373.4,195.5h-1.7v-15.2h-5.6v-1.6h12.9v1.6h-5.6v15.2Z"/>
      <path class="st3" d="M383.3,195.5h-1.7v-16.8h1.7v16.8Z"/>
      <path class="st3" d="M404.2,187.1c0,1.3-.2,2.5-.7,3.5-.4,1.1-1.1,2-1.8,2.8s-1.7,1.4-2.8,1.8c-1.1.4-2.2.7-3.5.7s-2.4-.2-3.5-.7c-1.1-.4-2-1.1-2.8-1.8s-1.4-1.7-1.8-2.8-.7-2.3-.7-3.5.2-2.5.7-3.5,1.1-2,1.8-2.8,1.7-1.4,2.8-1.8c1.1-.4,2.2-.7,3.5-.7s2.4.2,3.5.7c1.1.4,2,1.1,2.8,1.8s1.4,1.7,1.8,2.8c.4,1.1.7,2.3.7,3.5ZM402.3,187.1c0-1-.2-1.9-.5-2.8-.3-.9-.8-1.6-1.4-2.3-.6-.7-1.3-1.2-2.2-1.6s-1.8-.6-2.9-.6-2,.2-2.9.6-1.6.9-2.2,1.6c-.6.7-1,1.4-1.4,2.3-.3.9-.5,1.8-.5,2.8s.2,1.9.5,2.8c.3.9.8,1.6,1.4,2.3.6.7,1.3,1.2,2.2,1.6.9.4,1.8.6,2.9.6s2-.2,2.9-.6c.9-.4,1.6-.9,2.2-1.6.6-.7,1-1.4,1.4-2.3.3-.9.5-1.8.5-2.8Z"/>
      <path class="st3" d="M419.7,192.9h0v-14.2h1.7v16.8h-2.1l-10-14.4h0v14.4h-1.7v-16.8h2.1l10,14.2Z"/>
      <path class="st3" d="M425.7,195.5h-2l7.3-16.8h1.7l7.3,16.8h-2l-1.8-4.4h-8.6l-1.8,4.4ZM428.2,189.5h7.3l-3.6-8.8-3.6,8.8Z"/>
      <path class="st3" d="M444,193.9h7.8v1.6h-9.5v-16.8h1.7v15.2Z"/>
      <path class="st3" d="M468.6,181.4c-.7-1.1-1.8-1.6-3.2-1.6s-.9,0-1.3.2c-.4.1-.8.3-1.1.5-.3.2-.6.6-.8.9-.2.4-.3.8-.3,1.4,0,.8.2,1.3.6,1.8.4.4,1,.8,1.6,1s1.3.5,2.1.7c.8.2,1.4.5,2.1.9s1.2.8,1.6,1.4c.4.6.6,1.4.6,2.4s-.2,1.4-.5,2c-.3.6-.8,1.1-1.3,1.5-.5.4-1.1.7-1.8.9s-1.3.3-2,.3c-1,0-2-.2-2.9-.6s-1.7-1-2.4-1.9l1.6-1.1c.4.6.9,1.1,1.5,1.5s1.4.6,2.3.6.9,0,1.3-.2c.4-.1.8-.3,1.1-.6.3-.3.6-.6.8-1,.2-.4.3-.8.3-1.3s-.1-1.1-.4-1.5c-.2-.4-.6-.7-1-1-.4-.3-.9-.5-1.4-.7-.5-.2-1-.3-1.6-.5-.5-.2-1.1-.4-1.6-.6-.5-.2-1-.5-1.4-.8-.4-.3-.7-.8-1-1.3-.2-.5-.4-1.2-.4-1.9s.2-1.5.5-2.1c.3-.6.7-1.1,1.2-1.5.5-.4,1.1-.7,1.7-.9s1.3-.3,2-.3,1.8.2,2.6.5c.8.3,1.5.8,2.2,1.6l-1.5,1.2Z"/>
      <path class="st3" d="M475.6,193.9h9v1.6h-10.7v-16.8h10.4v1.6h-8.7v5.7h8.1v1.6h-8.1v6.4Z"/>
      <path class="st3" d="M501.7,192.8c-.3.4-.6.8-1.1,1.2-.4.4-.9.7-1.4,1-.5.3-1.1.5-1.7.7-.6.2-1.3.2-2,.2-1.2,0-2.4-.2-3.5-.7-1.1-.4-2-1.1-2.8-1.8-.8-.8-1.4-1.7-1.8-2.8-.4-1.1-.7-2.3-.7-3.5s.2-2.5.7-3.5c.4-1.1,1.1-2,1.8-2.8.8-.8,1.7-1.4,2.8-1.8,1.1-.4,2.2-.7,3.5-.7s2.1.2,3.1.6c1,.4,1.9,1.1,2.7,2l-1.5,1.1c-.2-.3-.4-.5-.7-.8s-.6-.5-1-.7-.8-.4-1.2-.5c-.4-.1-.9-.2-1.3-.2-1.1,0-2,.2-2.9.6-.9.4-1.6.9-2.2,1.6-.6.7-1,1.4-1.4,2.3-.3.9-.5,1.8-.5,2.8s.2,1.9.5,2.8c.3.9.8,1.6,1.4,2.3.6.7,1.3,1.2,2.2,1.6.9.4,1.8.6,2.9.6s.9,0,1.3-.1c.4,0,.9-.2,1.3-.4.4-.2.8-.4,1.2-.8.4-.3.7-.7,1-1.2l1.4,1Z"/>
      <path class="st3" d="M516.6,189.2c0,.7,0,1.4-.2,2.2-.2.8-.5,1.5-.9,2.2-.5.7-1.1,1.2-1.9,1.6-.8.4-1.8.7-3.1.7s-2.3-.2-3.1-.7c-.8-.4-1.4-1-1.9-1.6-.5-.7-.8-1.4-.9-2.2-.2-.8-.2-1.5-.2-2.2v-10.5h1.7v10.3c0,.8,0,1.5.2,2.1.2.6.4,1.1.6,1.5.3.4.6.7.9.9.3.2.6.4,1,.5.3.1.6.2.9.2.3,0,.6,0,.8,0s.5,0,.8,0c.3,0,.6-.1.9-.2.3-.1.6-.3,1-.5.3-.2.6-.5.9-.9.3-.4.5-.9.6-1.5.2-.6.2-1.3.2-2.1v-10.3h1.7v10.5Z"/>
      <path class="st3" d="M522.6,195.5h-1.7v-16.8h5.2c1.7,0,3.1.4,4,1.1,1,.7,1.5,1.9,1.5,3.4s-.4,2.2-1.1,2.9c-.7.8-1.8,1.3-3.2,1.4l4.8,8h-2.1l-4.6-7.8h-2.8v7.8ZM522.6,186.1h3c.8,0,1.4,0,1.9-.2.5-.2,1-.4,1.3-.6.3-.3.5-.6.7-.9.1-.4.2-.7.2-1.1s0-.8-.2-1.1c-.1-.4-.4-.7-.7-.9-.3-.3-.7-.5-1.3-.6-.5-.1-1.2-.2-1.9-.2h-3v5.9Z"/>
      <path class="st3" d="M536.6,195.5h-1.7v-16.8h1.7v16.8Z"/>
      <path class="st3" d="M546.5,195.5h-1.7v-15.2h-5.6v-1.6h12.9v1.6h-5.6v15.2Z"/>
      <path class="st3" d="M560.1,195.5h-1.7v-7.2l-6.3-9.5h2.1l5,7.9,5-7.9h2.1l-6.3,9.5v7.2Z"/>
      <path class="st3" d="M574.7,195.5h-2l7.3-16.8h1.7l7.3,16.8h-2l-1.8-4.4h-8.6l-1.8,4.4ZM577.1,189.5h7.3l-3.6-8.8-3.6,8.8Z"/>
      <path class="st3" d="M603.3,192.9h0v-14.2h1.7v16.8h-2.1l-10-14.4h0v14.4h-1.7v-16.8h2.1l10,14.2Z"/>
      <path class="st3" d="M609.4,178.7h5.6c1,0,2.1.2,3.1.5,1.1.3,2,.9,2.8,1.6s1.5,1.6,2,2.6c.5,1,.8,2.3.8,3.7s-.3,2.6-.8,3.7c-.5,1-1.2,1.9-2,2.6-.8.7-1.8,1.2-2.8,1.6-1,.3-2.1.5-3.1.5h-5.6v-16.8ZM611.1,193.9h3.3c1.3,0,2.4-.2,3.3-.6s1.7-.9,2.3-1.5,1.1-1.4,1.4-2.2.5-1.7.5-2.5-.2-1.7-.5-2.5-.8-1.5-1.4-2.2-1.4-1.2-2.3-1.5c-.9-.4-2-.6-3.3-.6h-3.3v13.6Z"/>
    </g>
    <g class="st0">
      <path class="st3" d="M270.2,222.3h9v1.6h-10.7v-16.8h10.4v1.6h-8.7v5.7h8.1v1.6h-8.1v6.4Z"/>
      <path class="st3" d="M290.8,220.8l5.7-13.6h2.6v16.8h-1.7v-14.5h0l-6.1,14.5h-.9l-6.1-14.5h0v14.5h-1.7v-16.8h2.6l5.7,13.6Z"/>
      <path class="st3" d="M305.4,222.3h9v1.6h-10.7v-16.8h10.4v1.6h-8.7v5.7h8.1v1.6h-8.1v6.4Z"/>
      <path class="st3" d="M319.4,223.9h-1.7v-16.8h5.2c1.7,0,3.1.4,4,1.1,1,.7,1.5,1.9,1.5,3.4s-.4,2.2-1.1,2.9c-.7.8-1.8,1.3-3.2,1.4l4.8,8h-2.1l-4.6-7.8h-2.8v7.8ZM319.4,214.5h3c.8,0,1.4,0,1.9-.2.5-.2,1-.4,1.3-.6.3-.3.5-.6.7-.9.1-.4.2-.7.2-1.1s0-.8-.2-1.1c-.1-.4-.4-.7-.7-.9-.3-.3-.7-.5-1.3-.6-.5-.1-1.2-.2-1.9-.2h-3v5.9Z"/>
      <path class="st3" d="M344.2,210.2c-.6-.6-1.2-1.1-2-1.4s-1.7-.5-2.7-.5-2,.2-2.9.6c-.9.4-1.6.9-2.2,1.6-.6.7-1,1.4-1.4,2.3-.3.9-.5,1.8-.5,2.8s.2,1.9.5,2.8c.3.9.8,1.6,1.4,2.3.6.7,1.3,1.2,2.2,1.6.9.4,1.8.6,2.9.6s1.7-.1,2.5-.3c.8-.2,1.5-.5,2.1-.9v-5.6h-4v-1.6h5.7v8.2c-.9.6-2,1-3.1,1.3s-2.2.4-3.2.4-2.4-.2-3.5-.7c-1.1-.4-2-1.1-2.8-1.8-.8-.8-1.4-1.7-1.8-2.8-.4-1.1-.7-2.3-.7-3.5s.2-2.5.7-3.5c.4-1.1,1.1-2,1.8-2.8.8-.8,1.7-1.4,2.8-1.8,1.1-.4,2.2-.7,3.5-.7s2.5.2,3.5.6c1,.4,1.8.9,2.6,1.7l-1.3,1.3Z"/>
      <path class="st3" d="M351.9,222.3h9v1.6h-10.7v-16.8h10.4v1.6h-8.7v5.7h8.1v1.6h-8.1v6.4Z"/>
      <path class="st3" d="M376.4,221.3h0v-14.2h1.7v16.8h-2.1l-10-14.4h0v14.4h-1.7v-16.8h2.1l10,14.2Z"/>
      <path class="st3" d="M396.5,221.2c-.3.4-.6.8-1.1,1.2-.4.4-.9.7-1.4,1s-1.1.5-1.7.7-1.3.2-2,.2c-1.2,0-2.4-.2-3.5-.7-1.1-.4-2-1.1-2.8-1.8s-1.4-1.7-1.8-2.8-.7-2.3-.7-3.5.2-2.5.7-3.5,1.1-2,1.8-2.8,1.7-1.4,2.8-1.8c1.1-.4,2.2-.7,3.5-.7s2.1.2,3.1.6c1,.4,1.9,1.1,2.7,2l-1.5,1.1c-.2-.3-.4-.5-.7-.8-.3-.3-.6-.5-1-.7-.4-.2-.8-.4-1.2-.5-.4-.1-.9-.2-1.3-.2-1.1,0-2,.2-2.9.6s-1.6.9-2.2,1.6c-.6.7-1,1.4-1.4,2.3-.3.9-.5,1.8-.5,2.8s.2,1.9.5,2.8c.3.9.8,1.6,1.4,2.3.6.7,1.3,1.2,2.2,1.6.9.4,1.8.6,2.9.6s.9,0,1.3-.1c.4,0,.9-.2,1.3-.4.4-.2.8-.4,1.2-.8.4-.3.7-.7,1-1.2l1.4,1Z"/>
      <path class="st3" d="M404.7,223.9h-1.7v-7.2l-6.3-9.5h2.1l5,7.9,5-7.9h2.1l-6.3,9.5v7.2Z"/>
      <path class="st3" d="M431.7,221.3h0v-14.2h1.7v16.8h-2.1l-10-14.4h0v14.4h-1.7v-16.8h2.1l10,14.2Z"/>
      <path class="st3" d="M454.3,215.5c0,1.3-.2,2.5-.7,3.5-.4,1.1-1.1,2-1.8,2.8s-1.7,1.4-2.8,1.8c-1.1.4-2.2.7-3.5.7s-2.4-.2-3.5-.7c-1.1-.4-2-1.1-2.8-1.8s-1.4-1.7-1.8-2.8-.7-2.3-.7-3.5.2-2.5.7-3.5,1.1-2,1.8-2.8,1.7-1.4,2.8-1.8c1.1-.4,2.2-.7,3.5-.7s2.4.2,3.5.7c1.1.4,2,1.1,2.8,1.8s1.4,1.7,1.8,2.8c.4,1.1.7,2.3.7,3.5ZM452.5,215.5c0-1-.2-1.9-.5-2.8-.3-.9-.8-1.6-1.4-2.3-.6-.7-1.3-1.2-2.2-1.6s-1.8-.6-2.9-.6-2,.2-2.9.6-1.6.9-2.2,1.6c-.6.7-1,1.4-1.4,2.3-.3.9-.5,1.8-.5,2.8s.2,1.9.5,2.8c.3.9.8,1.6,1.4,2.3.6.7,1.3,1.2,2.2,1.6.9.4,1.8.6,2.9.6s2-.2,2.9-.6c.9-.4,1.6-.9,2.2-1.6.6-.7,1-1.4,1.4-2.3.3-.9.5-1.8.5-2.8Z"/>
      <path class="st3" d="M463.1,223.9h-1.7v-15.2h-5.6v-1.6h12.9v1.6h-5.6v15.2Z"/>
      <path class="st3" d="M473,223.9h-1.7v-16.8h1.7v16.8Z"/>
      <path class="st3" d="M491.4,221.2c-.3.4-.6.8-1.1,1.2-.4.4-.9.7-1.4,1s-1.1.5-1.7.7-1.3.2-2,.2c-1.2,0-2.4-.2-3.5-.7-1.1-.4-2-1.1-2.8-1.8s-1.4-1.7-1.8-2.8-.7-2.3-.7-3.5.2-2.5.7-3.5,1.1-2,1.8-2.8,1.7-1.4,2.8-1.8c1.1-.4,2.2-.7,3.5-.7s2.1.2,3.1.6c1,.4,1.9,1.1,2.7,2l-1.5,1.1c-.2-.3-.4-.5-.7-.8-.3-.3-.6-.5-1-.7-.4-.2-.8-.4-1.2-.5-.4-.1-.9-.2-1.3-.2-1.1,0-2,.2-2.9.6s-1.6.9-2.2,1.6c-.6.7-1,1.4-1.4,2.3-.3.9-.5,1.8-.5,2.8s.2,1.9.5,2.8c.3.9.8,1.6,1.4,2.3.6.7,1.3,1.2,2.2,1.6.9.4,1.8.6,2.9.6s.9,0,1.3-.1c.4,0,.9-.2,1.3-.4.4-.2.8-.4,1.2-.8.4-.3.7-.7,1-1.2l1.4,1Z"/>
      <path class="st3" d="M496,222.3h9v1.6h-10.7v-16.8h10.4v1.6h-8.7v5.7h8.1v1.6h-8.1v6.4Z"/>
      <path class="st3" d="M522.8,209.9c-.7-1.1-1.8-1.6-3.2-1.6s-.9,0-1.3.2c-.4.1-.8.3-1.1.5-.3.2-.6.6-.8.9-.2.4-.3.8-.3,1.4,0,.8.2,1.3.6,1.8.4.4,1,.8,1.6,1,.6.3,1.3.5,2.1.7s1.4.5,2.1.9c.6.4,1.2.8,1.6,1.4.4.6.6,1.4.6,2.4s-.2,1.4-.5,2c-.3.6-.8,1.1-1.3,1.5-.5.4-1.1.7-1.8.9s-1.3.3-2,.3c-1,0-2-.2-2.9-.6s-1.7-1-2.4-1.9l1.6-1.1c.4.6.9,1.1,1.5,1.5s1.4.6,2.3.6.9,0,1.3-.2c.4-.1.8-.3,1.1-.6.3-.3.6-.6.8-1,.2-.4.3-.8.3-1.3s-.1-1.1-.4-1.5c-.2-.4-.6-.7-1-1-.4-.3-.9-.5-1.4-.7-.5-.2-1-.3-1.6-.5s-1.1-.4-1.6-.6c-.5-.2-1-.5-1.4-.8-.4-.3-.7-.8-1-1.3-.2-.5-.4-1.2-.4-1.9s.2-1.5.5-2.1c.3-.6.7-1.1,1.2-1.5.5-.4,1.1-.7,1.7-.9.6-.2,1.3-.3,2-.3s1.8.2,2.6.5c.8.3,1.5.8,2.2,1.6l-1.5,1.2Z"/>
      <path class="st3" d="M529.8,222.3h9v1.6h-10.7v-16.8h10.4v1.6h-8.7v5.7h8.1v1.6h-8.1v6.4Z"/>
      <path class="st3" d="M543.8,223.9h-1.7v-16.8h5.2c1.7,0,3.1.4,4,1.1,1,.7,1.5,1.9,1.5,3.4s-.4,2.2-1.1,2.9c-.7.8-1.8,1.3-3.2,1.4l4.8,8h-2.1l-4.6-7.8h-2.8v7.8ZM543.8,214.5h3c.8,0,1.4,0,1.9-.2.5-.2,1-.4,1.3-.6.3-.3.5-.6.7-.9.1-.4.2-.7.2-1.1s0-.8-.2-1.1c-.1-.4-.4-.7-.7-.9-.3-.3-.7-.5-1.3-.6-.5-.1-1.2-.2-1.9-.2h-3v5.9Z"/>
      <path class="st3" d="M561.2,221.3h0l5.5-14.2h1.8l-6.5,16.8h-1.7l-6.4-16.8h1.9l5.3,14.2Z"/>
      <path class="st3" d="M572.5,223.9h-1.7v-16.8h1.7v16.8Z"/>
      <path class="st3" d="M590.8,221.2c-.3.4-.6.8-1.1,1.2-.4.4-.9.7-1.4,1s-1.1.5-1.7.7-1.3.2-2,.2c-1.2,0-2.4-.2-3.5-.7-1.1-.4-2-1.1-2.8-1.8-.8-.8-1.4-1.7-1.8-2.8-.4-1.1-.7-2.3-.7-3.5s.2-2.5.7-3.5c.4-1.1,1.1-2,1.8-2.8.8-.8,1.7-1.4,2.8-1.8,1.1-.4,2.2-.7,3.5-.7s2.1.2,3.1.6c1,.4,1.9,1.1,2.7,2l-1.5,1.1c-.2-.3-.4-.5-.7-.8s-.6-.5-1-.7c-.4-.2-.8-.4-1.2-.5-.4-.1-.9-.2-1.3-.2-1.1,0-2,.2-2.9.6-.9.4-1.6.9-2.2,1.6-.6.7-1,1.4-1.4,2.3-.3.9-.5,1.8-.5,2.8s.2,1.9.5,2.8c.3.9.8,1.6,1.4,2.3.6.7,1.3,1.2,2.2,1.6.9.4,1.8.6,2.9.6s.9,0,1.3-.1c.4,0,.9-.2,1.3-.4.4-.2.8-.4,1.2-.8.4-.3.7-.7,1-1.2l1.4,1Z"/>
      <path class="st3" d="M595.4,222.3h9v1.6h-10.7v-16.8h10.4v1.6h-8.7v5.7h8.1v1.6h-8.1v6.4Z"/>
    </g>
  </g>
  <g class="st0">
    <g class="st0">
      <path class="st1" d="M268.1,155.7V51.5h20.3v104.3h-20.3Z"/>
      <path class="st1" d="M372.2,78.8c-.7-.7-1.9-1.6-3.7-2.8-1.8-1.2-4-2.3-6.6-3.4-2.6-1.1-5.4-2-8.4-2.9-3-.8-6.1-1.2-9.3-1.2-5.5,0-9.6,1-12.4,3.1-2.8,2-4.2,4.9-4.2,8.6s.9,5.1,2.6,6.7c1.8,1.7,4.4,3.1,7.9,4.2,3.5,1.2,7.9,2.4,13.2,3.8,6.9,1.7,12.8,3.7,17.8,6.1,5,2.4,8.9,5.5,11.6,9.4,2.7,3.8,4,8.9,4,15.3s-1,10.3-3.1,14.2c-2.1,3.9-4.9,7.1-8.5,9.6-3.6,2.4-7.7,4.2-12.3,5.3-4.6,1.1-9.5,1.7-14.7,1.7s-10.4-.5-15.6-1.6c-5.2-1.1-10.2-2.6-15-4.6-4.8-2-9.2-4.4-13.2-7.3l9-17.5c.9.9,2.4,2,4.7,3.5,2.3,1.4,5,2.8,8.2,4.3,3.2,1.4,6.8,2.6,10.6,3.6,3.8,1,7.7,1.5,11.6,1.5s9.6-.9,12.5-2.8c2.8-1.8,4.3-4.5,4.3-7.8s-1.1-5.6-3.4-7.3c-2.3-1.8-5.4-3.3-9.4-4.6-4-1.3-8.8-2.8-14.2-4.3-6.6-1.9-12-3.9-16.4-6.2-4.4-2.3-7.7-5.2-9.8-8.7-2.2-3.5-3.2-7.9-3.2-13.2s1.7-13.1,5.1-17.9,8-8.5,13.7-11c5.8-2.5,12.2-3.7,19.2-3.7s9.5.5,13.9,1.6c4.4,1.1,8.4,2.5,12.3,4.3,3.8,1.8,7.2,3.7,10.3,5.7l-9,16.4Z"/>
      <path class="st1" d="M426.1,51.5h20.6l38.3,104.3h-20.9l-8.7-26h-38.3l-8.7,26h-20.9l38.5-104.3ZM450.8,115.5l-14.3-43-14.4,43h28.8Z"/>
      <path class="st1" d="M568.9,138v17.8h-72.4V51.5h71.1v17.8h-50.8v25.1h43.9v16.4h-43.9v27.2h52.1Z"/>
      <path class="st1" d="M605,88.8v67h-20.3V51.5h16.2l53.9,68.7V51.6h20.3v104.1h-16.9l-53.2-67Z"/>
      <path class="st1" d="M758.9,78.8c-.7-.7-1.9-1.6-3.7-2.8-1.8-1.2-4-2.3-6.6-3.4-2.6-1.1-5.4-2-8.4-2.9-3-.8-6.1-1.2-9.3-1.2-5.5,0-9.6,1-12.4,3.1-2.8,2-4.2,4.9-4.2,8.6s.9,5.1,2.6,6.7c1.8,1.7,4.4,3.1,7.9,4.2,3.5,1.2,7.9,2.4,13.2,3.8,6.9,1.7,12.8,3.7,17.8,6.1,5,2.4,8.9,5.5,11.6,9.4,2.7,3.8,4,8.9,4,15.3s-1,10.3-3.1,14.2c-2.1,3.9-4.9,7.1-8.5,9.6-3.6,2.4-7.7,4.2-12.3,5.3-4.6,1.1-9.5,1.7-14.7,1.7s-10.4-.5-15.6-1.6c-5.2-1.1-10.2-2.6-15-4.6-4.8-2-9.2-4.4-13.2-7.3l9-17.5c.9.9,2.4,2,4.7,3.5,2.3,1.4,5,2.8,8.2,4.3,3.2,1.4,6.8,2.6,10.6,3.6,3.8,1,7.7,1.5,11.6,1.5s9.6-.9,12.5-2.8c2.8-1.8,4.3-4.5,4.3-7.8s-1.1-5.6-3.4-7.3c-2.3-1.8-5.4-3.3-9.4-4.6-4-1.3-8.8-2.8-14.2-4.3-6.6-1.9-12-3.9-16.4-6.2-4.4-2.3-7.7-5.2-9.8-8.7-2.2-3.5-3.2-7.9-3.2-13.2s1.7-13.1,5.1-17.9,8-8.5,13.7-11c5.8-2.5,12.2-3.7,19.2-3.7s9.5.5,13.9,1.6c4.4,1.1,8.4,2.5,12.3,4.3,3.8,1.8,7.2,3.7,10.3,5.7l-9,16.4Z"/>
    </g>
  </g>
  <g>
    <path class="st2" d="M205.3,168.7c0,0-5.3-3.3-7.4-5.2-1.4-1.2-5.3-5.6-8.1-8.9-1.5-1.7-2.8-3.2-3.5-4-1.4-1.5-2.2-5.3-2.2-7.4v-19.3c0-.5-.5-5.7-2.9-12.8-.4-1.2-1.7-1.8-2.8-1.4s-1.8,1.7-1.4,2.8c2.2,6.5,2.6,11,2.7,11.4v19.2c0,1.8.6,7.5,3.4,10.5.7.7,1.9,2.1,3.4,3.8,3.9,4.5,7,8,8.6,9.3,2.4,2.1,7.8,5.4,8,5.6.4.2.8.3,1.2.3.7,0,1.5-.4,1.9-1.1.7-1,.3-2.4-.7-3.1h0Z"/>
    <path class="st2" d="M65.6,162.8c12.7-8.6,12.7-11.6,12.7-12.6v-21.9c0-1.5.2-14.9,7.1-27.5,8.5-15.4,23.3-23.2,44-23.2s33.6,8.1,42.6,24c.6,1.1,2,1.4,3.1.8,1.1-.6,1.4-2,.8-3.1-6.8-12-20.4-26.3-46.5-26.3s-41.4,13.9-47.9,25.5c-7.3,13.2-7.7,27-7.7,29.7v21.7c-.4.8-2.9,3.8-10.7,9.1-6.6,4.5-13,7.2-13,7.2-1.1.5-1.7,1.8-1.2,2.9.4.9,1.2,1.4,2.1,1.4s.6,0,.9-.2,6.8-2.9,13.9-7.6h0Z"/>
    <path class="st2" d="M168.8,132h0c1.2,0,2.2-.9,2.2-2.2,0-.3.2-8.3-3-17.4-4.4-12.2-12.9-20.5-24.8-24.2-28.2-8.6-43.4,7.2-44.1,7.8-.8.9-.8,2.3,0,3.2.9.8,2.3.8,3.2,0,.1-.1,13.9-14.4,39.5-6.6,10.5,3.2,17.9,10.4,21.8,21.3,3,8.3,2.8,15.8,2.8,15.9,0,1.2.9,2.3,2.2,2.3h0Z"/>
    <path class="st2" d="M197.7,193c-.1,0-11.2-5.9-14.7-8.3l-.4-.3c-3.9-2.6-12.9-8.8-20-23.5-4.7-9.7-4.3-16.4-3.9-23.4.2-4,.5-8.1-.2-12.7-2.1-13.5-13.4-27-30.9-26.5-18.5.5-27.6,16.1-27.5,24.7,0,1.8,0,3.7,0,5.6,0,6.6.2,14.2,0,20.1-.4,9.4-8.6,20.6-16.2,27.8-10.3,9.9-26.2,13.8-26.3,13.9-1.2.3-1.9,1.5-1.7,2.7.3,1.2,1.5,1.9,2.7,1.6.7-.2,17.1-4.2,28.4-15,10.4-10,17.1-21.8,17.5-30.8.3-6,.2-13.6,0-20.3,0-1.9,0-3.8,0-5.6,0-6.8,7.8-19.8,23.2-20.2,15-.4,24.6,11.1,26.4,22.7.6,4.2.4,7.9.2,11.8-.4,7.3-.9,14.9,4.3,25.6,7.6,15.8,17.3,22.4,21.5,25.3l.4.3c3.7,2.6,14.7,8.3,15.1,8.6.3.2.7.3,1,.3.8,0,1.6-.4,2-1.2.6-1.1.1-2.4-.9-3h0Z"/>
    <path class="st2" d="M183,215.9c-.2-.1-19.9-14.4-26.1-19.8-5.8-5-11.8-13.9-12.4-15.7-.2-1.9,0-16.1,0-24.6s0-8,0-10.2v-18.6c0-5.8-3-15.7-14.1-15.7s-17.9,6.9-17.9,17.9,0,2.1,0,3.2c0,8.2,0,17.5-2,25.9-2.2,8.7-8.9,18.6-18.3,27-8.6,7.6-28.4,16.3-28.6,16.4-1.1.5-1.7,1.8-1.2,2.9s1.8,1.6,2.9,1.2c.8-.4,20.7-9,29.8-17.1,10.1-9,17.3-19.6,19.7-29.2,2.2-8.9,2.2-18.5,2.2-27,0-1.1,0-2.2,0-3.2,0-8.6,4.9-13.5,13.5-13.5s9.6,9.3,9.6,11.2v18.6c0,2.2,0,5.9,0,10.2-.1,17.1-.1,24.4.1,25.6.5,2.4,7.3,12.5,13.8,18.1,6.3,5.5,25.6,19.4,26.5,20,.4.3.9.4,1.3.4.7,0,1.4-.3,1.8-.9.7-1,.5-2.4-.5-3.1h0Z"/>
    <path class="st2" d="M50.3,130.4c3.5,0,6.3-2.8,6.3-6.3s-1.6-4.9-4-5.9c1-7.6,6.8-40,36.2-56.4,14.3-7.9,29.9-11.5,45.2-10.2,14.8,1.2,29.1,6.8,41.2,16.2,1,.8,2.4.6,3.1-.4s.6-2.4-.4-3.1c-12.9-10-27.9-15.9-43.6-17.2-16.2-1.3-32.7,2.4-47.8,10.8-18.5,10.3-28,26.5-32.8,38.3-4,10.1-5.3,18.6-5.7,21.9-2.5.9-4.3,3.2-4.3,6s2.8,6.3,6.3,6.3h0ZM50.3,120.1c2.1,0,3.9,1.7,3.9,3.9s-1.7,3.9-3.9,3.9-3.9-1.7-3.9-3.9,1.7-3.9,3.9-3.9Z"/>
    <path class="st2" d="M68.5,180c3.5,0,6.3-2.9,6.3-6.4s0-.4,0-.6c5.8-4.5,11.3-10.6,12.9-12.8,2.5-3.3,3.3-11.1,3.3-11.9.1-1.2-.8-2.3-2-2.4-1.2-.1-2.3.8-2.4,2-.2,2.8-1.1,7.9-2.4,9.6-1.6,2.1-6.5,7.4-11.4,11.4-1.1-1-2.6-1.6-4.3-1.6-3.5,0-6.3,2.9-6.3,6.4s0,1,.2,1.4c-4.9,2.2-9.2,3.7-9.2,3.7-1.2.4-1.8,1.7-1.4,2.8.3.9,1.2,1.5,2.1,1.5s.5,0,.7-.1c.2,0,4.9-1.7,10.3-4.2,1,.7,2.3,1.2,3.7,1.2h0ZM68.5,169.8c2.1,0,3.9,1.7,3.9,3.9s-1.7,3.9-3.9,3.9-3.9-1.7-3.9-3.9,1.7-3.9,3.9-3.9Z"/>
    <path class="st2" d="M94,208.6c3.5,0,6.3-2.9,6.3-6.4s-.2-1.5-.4-2.2c9.7-7.8,14.7-13.3,16.5-15.5.2,0,.4,0,.6,0,3.5,0,6.3-2.9,6.3-6.4s-2.8-6.4-6.3-6.4-6.3,2.9-6.3,6.4.6,3.1,1.6,4.2c-2.1,2.4-6.8,7.4-15.3,14.2-.9-.5-1.9-.8-3-.8-3.5,0-6.3,2.9-6.3,6.4s0,.8.1,1.2c-9.1,5.9-15.9,8.4-16.1,8.4-1.2.4-1.8,1.7-1.4,2.9.3.9,1.2,1.5,2.1,1.5s.5,0,.7-.1c.3-.1,7.3-2.6,16.9-8.8,1.1.9,2.4,1.4,3.9,1.4h0ZM117.1,174.3c2.1,0,3.9,1.7,3.9,3.9s-1.7,3.9-3.9,3.9-3.9-1.7-3.9-3.9,1.7-3.9,3.9-3.9ZM94,198.3c2.1,0,3.9,1.7,3.9,3.9s-1.7,3.9-3.9,3.9-3.9-1.7-3.9-3.9,1.7-3.9,3.9-3.9Z"/>
    <path class="st2" d="M112.7,225.8c3.5,0,6.3-2.9,6.3-6.4s0-.6,0-1c2.7-1.9,5.1-3.6,6.5-4.6.9.5,2,.8,3.1.8,3.5,0,6.4-2.9,6.4-6.4s-2.9-6.4-6.4-6.4-6.3,2.9-6.3,6.4.1,1.4.4,2.1c-1.3,1-3.4,2.5-5.8,4.1-1.1-.9-2.5-1.5-4.1-1.5-3.5,0-6.3,2.9-6.3,6.4s0,1.1.2,1.7c-7.3,4.4-14.4,8.8-14.5,8.9-1.1.6-1.4,2-.7,3.1.4.7,1.2,1.1,1.9,1.1s.8-.1,1.2-.3c0,0,7.3-4.5,14.8-9,1,.7,2.2,1,3.5,1h0ZM128.5,204.4c2.1,0,3.9,1.7,3.9,3.9s-1.7,3.9-3.9,3.9-3.9-1.7-3.9-3.9,1.7-3.9,3.9-3.9ZM112.7,215.5c2.1,0,3.9,1.7,3.9,3.9s-1.7,3.9-3.9,3.9-3.9-1.7-3.9-3.9,1.7-3.9,3.9-3.9Z"/>
    <path class="st2" d="M153,224.7c-.8,0-1.5.1-2.2.4-9.6-9.6-10.5-9.6-11.4-9.7-1.2,0-2.2.5-11.3,6.6-1.8,1.2-3.5,2.4-4.7,3.1-3.9,2.5-16.2,10.2-16.4,10.3-1.1.6-1.4,2-.7,3.1.4.7,1.2,1.1,1.9,1.1s.8-.1,1.2-.3c.1,0,12.5-7.8,16.4-10.3,1.2-.8,3-1.9,4.8-3.2,2.6-1.7,6.7-4.5,8.5-5.5,1.6,1.3,5.1,4.6,8.3,7.8-.5.9-.8,1.9-.8,3,0,3.5,2.9,6.4,6.4,6.4s6.4-2.9,6.4-6.4-2.9-6.4-6.4-6.4h0ZM153,235c-2.1,0-3.9-1.7-3.9-3.9s1.7-3.9,3.9-3.9,3.9,1.7,3.9,3.9-1.7,3.9-3.9,3.9Z"/>
    <path class="st2" d="M141.4,232.9c-3,0-5.5,2.1-6.2,4.8h-12.1c-1.2,0-2.2,1-2.2,2.2s1,2.2,2.2,2.2h12.7c1.1,2,3.2,3.4,5.6,3.4,3.5,0,6.4-2.9,6.4-6.4s-2.9-6.4-6.4-6.4h0ZM141.4,243.1c-2.1,0-3.9-1.7-3.9-3.9s1.7-3.9,3.9-3.9,3.9,1.7,3.9,3.9-1.7,3.9-3.9,3.9Z"/>
    <path class="st2" d="M209.4,127.7c.1-5.1-.4-33.5-21-54-.2-.2-.4-.4-.5-.5-.1-.2-.3-.3-.4-.5-.9-.9-2.3-.9-3.2,0s-.9,2.3,0,3.2c.1.1.3.3.4.4.2.2.4.4.6.6,19.1,19.1,19.7,46.3,19.6,50.8-2.5.9-4.2,3.2-4.2,6s2.9,6.4,6.4,6.4,6.4-2.9,6.4-6.4-1.7-5-4-5.9h0ZM207.1,137.4c-2.1,0-3.9-1.7-3.9-3.9s1.7-3.9,3.9-3.9,3.9,1.7,3.9,3.9-1.7,3.9-3.9,3.9Z"/>
    <path class="st2" d="M81.4,52.6c.5,0,.9-.1,1.3-.4.2-.1,17.7-12.7,44.2-12.7s20.2,1.6,30.2,4.6h0c0,3.6,2.9,6.5,6.4,6.5s6.4-2.8,6.4-6.3-2.9-6.3-6.4-6.3-3.5.8-4.7,2.1c-10.6-3.3-21.3-4.9-31.9-4.9-28,0-46.1,13-46.8,13.5-1,.7-1.2,2.1-.5,3.1.4.6,1.1.9,1.8.9h0ZM163.5,40.3c2.1,0,3.9,1.7,3.9,3.9s-1.7,3.9-3.9,3.9-3.9-1.7-3.9-3.9,1.7-3.9,3.9-3.9Z"/>
    <path class="st2" d="M197.1,145c-.6-.6-.8-1.1-.8-4.1s0-.6,0-1.1c1.1-26.4-5.1-47-17.9-59.5-11.4-11.1-27-18.4-42.8-20.1-.6-2.8-3.2-5-6.2-5s-5.5,2.1-6.2,4.8c-12.9,1-25.1,5.5-36.4,13.5-12.3,8.7-20.3,21.5-24,38.1-1.3,5.8-2.7,15.2-1.8,26.4,0,.2,0,.4,0,.4,0,1.9-.4,3.2-1.2,4-1,1-3.9,3.7-6,5.6-1-.7-2.2-1.1-3.5-1.1-3.5,0-6.3,2.9-6.3,6.4s2.8,6.4,6.3,6.4,6.3-2.9,6.3-6.4,0-1.1-.2-1.6c2.1-1.9,5.4-5,6.5-6.1,1.7-1.6,2.5-4,2.5-7.1s0-.4,0-.8c-.8-10.7.5-19.6,1.7-25.2,3.4-15.5,10.9-27.4,22.2-35.4,10.7-7.6,22.2-11.9,34.4-12.8,1.1,2,3.2,3.4,5.6,3.4s4.5-1.3,5.6-3.3c14.9,1.5,29.6,8.3,40.3,18.8,11.8,11.4,17.6,31.4,16.6,56.1,0,.6,0,1,0,1.3,0,3,.1,5.2,2.1,7.2s12.6,11.5,13,11.9c.4.4,1,.6,1.5.6s1.2-.2,1.7-.7c.8-.9.8-2.3-.2-3.2-3.2-2.9-11.9-10.8-12.9-11.8h0ZM50.3,157.4c-2.1,0-3.9-1.7-3.9-3.9s1.7-3.9,3.9-3.9,3.9,1.7,3.9,3.9-1.7,3.9-3.9,3.9ZM129.4,65.5c-2.1,0-3.9-1.7-3.9-3.9s1.7-3.9,3.9-3.9,3.9,1.7,3.9,3.9-1.7,3.9-3.9,3.9Z"/>
    <path class="st2" d="M96.8,106.8c.8-1,.6-2.4-.3-3.1s-2.4-.6-3.1.3c-.2.2-4.8,6.1-5.9,15.2-.9,7.4-.8,10.9-.6,12.1-2.4.9-4.2,3.2-4.2,6s2.8,6.4,6.3,6.4,6.3-2.9,6.3-6.4-1.7-5-4-5.9c0-.1,0-.3,0-.4,0,0-.4-3.1.6-11.2,1-7.8,4.9-12.9,5-13h0ZM92.8,137.3c0,2.1-1.7,3.9-3.9,3.9s-3.9-1.7-3.9-3.9,1.7-3.9,3.9-3.9,3.9,1.7,3.9,3.9Z"/>
    <path class="st2" d="M173.2,224.7c-.1,0-10-6.9-15.8-11.7-4.6-3.8-10-9.1-12.1-11.1.4-.8.6-1.7.6-2.7,0-3.5-2.9-6.4-6.4-6.4s-6.4,2.9-6.4,6.4,2.9,6.4,6.4,6.4,1.8-.2,2.6-.6c2.1,2.1,7.6,7.4,12.4,11.4,5.9,4.9,15.7,11.6,16.1,11.9.4.3.8.4,1.3.4.7,0,1.4-.3,1.9-1,.7-1,.4-2.4-.6-3.1h0ZM135.7,199.3c0-2.1,1.7-3.9,3.9-3.9s3.9,1.7,3.9,3.9-1.7,3.9-3.9,3.9-3.9-1.7-3.9-3.9Z"/>
    <path class="st2" d="M191.1,205.2s-2.7-1.9-6.2-4.4c.1-.5.2-1,.2-1.6,0-3.5-2.9-6.4-6.4-6.4s-2.4.4-3.4,1c-2.5-1.9-4.4-3.3-5.8-4.4-5.5-4.4-13.1-15.4-13.7-17.1-.8-2-1.6-3.7-1.6-3.7-.5-1.1-1.9-1.6-3-1.1s-1.6,1.9-1.1,3c0,0,.8,1.6,1.5,3.5,1,2.5,9,14.1,15.1,19,1.4,1.1,3.3,2.6,5.9,4.4-.2.6-.2,1.1-.2,1.8,0,3.5,2.9,6.4,6.4,6.4s2.6-.4,3.6-1.1c3.5,2.5,6.2,4.4,6.2,4.4.4.3.8.4,1.3.4.7,0,1.4-.3,1.8-.9.7-1,.5-2.4-.6-3.1h0ZM174.8,199.2c0-2.1,1.7-3.9,3.9-3.9s3.9,1.7,3.9,3.9-1.7,3.9-3.9,3.9-3.9-1.7-3.9-3.9Z"/>
    <path class="st2" d="M203.1,181.6s-3.1-2-7.2-4.8c.1-.5.2-1,.2-1.5,0-3.5-2.9-6.4-6.4-6.4s-2.3.3-3.2.9c-4.8-3.8-8.2-6.9-10.1-9.4-5.9-7.6-5.3-20-5.3-20.1,0-1.2-.9-2.3-2.1-2.4-1.2,0-2.3.9-2.4,2.1,0,.6-.7,14.2,6.3,23.1,2.1,2.7,5.8,6.1,10.8,10.1-.2.6-.3,1.3-.3,2,0,3.5,2.9,6.4,6.4,6.4s2.6-.4,3.6-1.1c4.1,2.9,7.2,4.9,7.3,4.9.4.2.8.4,1.2.4.7,0,1.4-.4,1.9-1,.7-1,.4-2.4-.7-3.1h0ZM185.9,175.3c0-2.1,1.7-3.9,3.9-3.9s3.9,1.7,3.9,3.9-1.7,3.9-3.9,3.9-3.9-1.7-3.9-3.9Z"/>
    <path class="st2" d="M130.7,190.3c1.2-1.5,2-3.7,2-6v-43.3c2.3-1,3.9-3.2,3.9-5.9s-2.9-6.4-6.4-6.4-6.3,2.9-6.3,6.4,1.8,5.2,4.3,6v43.1c0,1.2-.4,2.5-.9,3.2-1.1,1.2-15.6,14.6-23.1,19.8-7.5,5.2-23,14.2-23.1,14.3-1.1.6-1.4,2-.8,3.1.4.7,1.2,1.1,1.9,1.1s.8-.1,1.1-.3c.6-.4,15.8-9.2,23.5-14.5,7.8-5.4,22.9-19.3,23.9-20.7h0ZM126.3,135.1c0-2.1,1.7-3.9,3.9-3.9s3.9,1.7,3.9,3.9-1.7,3.9-3.9,3.9-3.9-1.7-3.9-3.9Z"/>
  </g>
</svg>